# xmcd
#
# Track frame offsets:
#	150
#	14123
#	27441
#	39936
#	52279
#	64818
#	76381
#	86049
#	103574
#	115738
#	134880
#	147013
#	161514
#	173091
#	192343
#	207457
#	219046
#	228395
# Disc length: 3216 seconds
# Revision: 1
# Processed by: cddbd v1.5.1PL0 Copyright (c) Steve Scherf et al.
#
# Submitted via: libkcddb 0.10
#
DISCID=030c8e12
DTITLE=Bobbie Gentry - Golden Classics
DYEAR=1900
DGENRE=
TTITLE0=Mississippi Delta
TTITLE1=I Saw An Angel Die
TTITLE2=Chickasaw County Child
TTITLE3=Sunday Best
TTITLE4=Niki Hokey
TTITLE5=Papa, Won't You Let Me Go To Town With You
TTITLE6=Bugs
TTITLE7=Hurry, Tuesday Child
TTITLE8=Lazy Willie
TTITLE9=Ode To Billie Joe
TTITLE10=Louisana Man
TTITLE11=Okolona Riber Bottom Band
TTITLE12=He Made A Woman Out of Me
TTITLE13=Fancy
TTITLE14=Apartment 21
TTITLE15=All I Have To Do Is Dream (with Glen Campbell)
TTITLE16=Let It Be Me (Je T'Appartiens) (with Glen Campbell)
TTITLE17=Morning Glory (with Glen Campbell)
EXTD=
EXTT0=
EXTT1=
EXTT2=
EXTT3=
EXTT4=
EXTT5=
EXTT6=
EXTT7=
EXTT8=
EXTT9=
EXTT10=
EXTT11=
EXTT12=
EXTT13=
EXTT14=
EXTT15=
EXTT16=
EXTT17=
PLAYORDER=
